# xmcd
# 
# Track frame offsets:
#     150
#     22228
#     57456
#     79406
#     91666
#     114208
#     131672
#     157208
# 
# Disc length: 2359
# 
# Revision: 1
# Processed by: cddbd v1.5.2PL0 Copyright (c) Steve Scherf et al.
# Submitted via: fre:ac v1.0.17
# 
DISCID=68093508
DTITLE=Kurt Ostbahn und die Musiker seines Vertrauens - 2014 Live auf der Kaiserwiese Vol. 3&4
DYEAR=2016
DGENRE=Pop
TTITLE0=Gemmas wieda an
TTITLE1=I brauch kan Dokta/ Du bist und bleibst a W/ Nix halt mi auf
TTITLE2=Stadt aus Stan
TTITLE3=Gheat si des
TTITLE4=Frog ned wos muagn is
TTITLE5=Bertl Braun
TTITLE6=Da Joker
TTITLE7=Arbeit
EXTD=
EXTT0=
EXTT1=
EXTT2=
EXTT3=
EXTT4=
EXTT5=
EXTT6=
EXTT7=
PLAYORDER=
